<svg width="132" height="36" viewBox="0 0 132 36" fill="none" xmlns="http://www.w3.org/2000/svg">
<g clip-path="url(#clip0_773_316)">
<path d="M11.0215 2.93302C14.1472 6.9011 15.8158 11.7944 15.7553 16.8155V18.0141L16.7865 18.6416C18.119 19.4482 19.1127 20.6993 19.5866 22.1669C19.1705 21.8605 18.7352 21.5803 18.2833 21.3278L15.5333 19.7838L15.0391 22.9001C14.9963 23.1755 14.9389 23.4485 14.8672 23.718H7.16151C7.04692 23.3655 6.95382 23.0129 6.86789 22.6463L6.24484 19.8261L3.70968 21.2362C3.28615 21.473 2.87723 21.7344 2.48507 22.0188C2.96824 20.5682 3.94123 19.3242 5.24224 18.4935L6.22336 17.866V16.7521C6.24106 11.7513 7.92967 6.89523 11.0287 2.93302H11.0215ZM11.0287 0C10.868 0.000390307 10.7128 0.0579856 10.5918 0.162162L10.5274 0.218566C6.39778 4.76564 4.10466 10.6454 4.08208 16.745C2.32967 17.8643 1.03251 19.5543 0.417263 21.5197C-0.197979 23.485 -0.0921719 25.6007 0.716194 27.4971C1.56776 25.6455 2.99131 24.1058 4.7839 23.0975C4.96368 23.8642 5.2031 24.6161 5.50005 25.3467C5.53771 25.4871 5.62118 25.6114 5.73763 25.7006C5.85408 25.7898 5.99706 25.8388 6.14458 25.8402H16.0847C16.2852 25.8402 16.4857 25.6498 16.586 25.3537C16.8758 24.6592 17.0778 23.9322 17.1875 23.1892C18.9836 24.1932 20.4083 25.7342 21.2553 27.5887C22.1124 25.7017 22.2451 23.5727 21.6287 21.5967C21.0124 19.6206 19.6888 17.9319 17.9037 16.8437C17.9745 10.7082 15.6935 4.77179 11.5157 0.218566C11.4535 0.150085 11.3773 0.0952397 11.2922 0.0575871C11.2071 0.0199344 11.1149 0.000314749 11.0215 0L11.0287 0Z" fill="#3F82E7"/>
<path d="M11.0216 16.1598C10.4715 16.1598 9.93376 15.9995 9.47611 15.699C9.01846 15.3986 8.6614 14.9715 8.44993 14.4716C8.23847 13.9716 8.18206 13.4213 8.28782 12.8898C8.39358 12.3584 8.65678 11.8697 9.04423 11.4853C9.43169 11.1009 9.92606 10.838 10.465 10.7298C11.004 10.6216 11.5634 10.6729 12.0728 10.8773C12.5822 11.0816 13.0188 11.4298 13.3275 11.8781C13.6361 12.3263 13.8031 12.8545 13.8074 13.396V13.396C13.8159 13.7469 13.7542 14.0961 13.6256 14.4235C13.4971 14.751 13.3043 15.0503 13.0582 15.3043C12.8121 15.5583 12.5176 15.7622 12.1915 15.9041C11.8654 16.0461 11.5141 16.1234 11.1576 16.1316C11.1126 16.1387 11.0666 16.1387 11.0216 16.1316V16.1598Z" fill="#3F82E7"/>
<path d="M14.8959 27.5958C14.7167 27.5901 14.5382 27.6198 14.3708 27.683C14.2034 27.7462 14.0505 27.8416 13.9211 27.9638C13.7917 28.086 13.6884 28.2323 13.6172 28.3943C13.546 28.5563 13.5084 28.7307 13.5066 28.9072V33.067C13.5066 33.4297 13.653 33.7776 13.9135 34.0342C14.1741 34.2907 14.5274 34.4348 14.8959 34.4348C15.2644 34.4348 15.6178 34.2907 15.8783 34.0342C16.1389 33.7776 16.2852 33.4297 16.2852 33.067V28.9636C16.291 28.7877 16.2611 28.6126 16.1973 28.4482C16.1336 28.2839 16.0372 28.1337 15.9139 28.0064C15.7906 27.879 15.6428 27.7772 15.4791 27.7067C15.3154 27.6362 15.139 27.5985 14.9604 27.5958H14.8959Z" fill="#27AD65"/>
<path d="M7.16154 27.5958C6.97931 27.5863 6.797 27.613 6.62546 27.6743C6.45392 27.7356 6.29665 27.8302 6.16302 27.9526C6.02939 28.0749 5.92213 28.2225 5.84761 28.3865C5.77309 28.5505 5.73284 28.7275 5.72925 28.9072V33.067C5.72925 33.4297 5.87562 33.7777 6.13617 34.0342C6.39672 34.2907 6.7501 34.4348 7.11857 34.4348C7.48704 34.4348 7.84042 34.2907 8.10097 34.0342C8.36152 33.7777 8.50789 33.4297 8.50789 33.067V28.9636C8.51362 28.7877 8.48373 28.6126 8.41998 28.4482C8.35623 28.2839 8.25989 28.1337 8.13658 28.0064C8.01326 27.879 7.86544 27.7772 7.70173 27.7067C7.53802 27.6362 7.36169 27.5985 7.18302 27.5958H7.16154Z" fill="#27AD65"/>
<path d="M10.9213 27.5958C10.7426 27.592 10.5649 27.623 10.3984 27.6869C10.2318 27.7507 10.0797 27.8463 9.95068 27.9681C9.82167 28.0899 9.71828 28.2355 9.64644 28.3966C9.5746 28.5577 9.5357 28.7312 9.53198 28.9072V34.6392C9.53198 35.002 9.67836 35.3499 9.93891 35.6064C10.1995 35.8629 10.5528 36.007 10.9213 36.007C11.2898 36.007 11.6432 35.8629 11.9037 35.6064C12.1643 35.3499 12.3106 35.002 12.3106 34.6392V28.9988C12.3164 28.823 12.2865 28.6478 12.2227 28.4835C12.159 28.3191 12.0626 28.1689 11.9393 28.0416C11.816 27.9143 11.6682 27.8124 11.5045 27.7419C11.3408 27.6714 11.1644 27.6337 10.9858 27.631L10.9213 27.5958Z" fill="#27AD65"/>
</g>
<path d="M94.2399 3.84C96.1333 3.84 97.7199 4.09333 98.9999 4.6C100.307 5.08 101.36 5.88 102.16 7C102.96 8.09333 103.547 9.54667 103.92 11.36C104.293 13.1467 104.48 15.36 104.48 18C104.48 20.6133 104.293 22.8267 103.92 24.64C103.547 26.4533 102.96 27.92 102.16 29.04C101.36 30.1333 100.307 30.9333 98.9999 31.44C97.7199 31.92 96.1333 32.16 94.2399 32.16C92.4533 32.16 90.7866 32.12 89.2399 32.04C87.7199 31.9867 86.2799 31.9067 84.9199 31.8L85.6799 30.56C86.9333 30.5867 88.2533 30.6133 89.6399 30.64C91.0266 30.6667 92.5599 30.68 94.2399 30.68C96.3466 30.68 98.0133 30.28 99.2399 29.48C100.493 28.68 101.387 27.36 101.92 25.52C102.48 23.6533 102.76 21.1467 102.76 18C102.76 14.8533 102.48 12.36 101.92 10.52C101.387 8.65333 100.493 7.32 99.2399 6.52C98.0133 5.72 96.3466 5.32 94.2399 5.32C92.5599 5.32 91.0266 5.33333 89.6399 5.36C88.2533 5.38667 86.9066 5.41333 85.5999 5.44L84.9199 4.2C86.2799 4.09333 87.7333 4.01333 89.2799 3.96C90.8266 3.88 92.4799 3.84 94.2399 3.84ZM86.5599 4.2V31.8H84.9199V4.2H86.5599Z" fill="#27AD65"/>
<path d="M120.646 3.72C122.566 3.72 124.193 3.97333 125.526 4.48C126.86 4.96 127.926 5.76 128.726 6.88C129.526 8 130.1 9.46667 130.446 11.28C130.82 13.0933 131.006 15.3333 131.006 18C131.006 20.6667 130.82 22.9067 130.446 24.72C130.1 26.5333 129.526 28 128.726 29.12C127.926 30.24 126.86 31.0533 125.526 31.56C124.193 32.04 122.566 32.28 120.646 32.28C118.726 32.28 117.1 32.04 115.766 31.56C114.433 31.0533 113.366 30.24 112.566 29.12C111.766 28 111.18 26.5333 110.806 24.72C110.433 22.9067 110.246 20.6667 110.246 18C110.246 15.3333 110.433 13.0933 110.806 11.28C111.18 9.46667 111.766 8 112.566 6.88C113.366 5.76 114.433 4.96 115.766 4.48C117.1 3.97333 118.726 3.72 120.646 3.72ZM120.646 5.2C118.486 5.2 116.78 5.61333 115.526 6.44C114.273 7.24 113.366 8.57333 112.806 10.44C112.246 12.3067 111.966 14.8267 111.966 18C111.966 21.1733 112.246 23.6933 112.806 25.56C113.366 27.4267 114.273 28.7733 115.526 29.6C116.78 30.4 118.486 30.8 120.646 30.8C122.78 30.8 124.473 30.4 125.726 29.6C127.006 28.7733 127.913 27.4267 128.446 25.56C129.006 23.6933 129.286 21.1733 129.286 18C129.286 14.8267 129.006 12.3067 128.446 10.44C127.913 8.57333 127.006 7.24 125.726 6.44C124.473 5.61333 122.78 5.2 120.646 5.2Z" fill="#27AD65"/>
<path d="M45.12 4.2V31.8H43.48V4.2H45.12ZM54.64 4.2V5.64H34V4.2H54.64Z" fill="#3F82E7"/>
<path d="M67.9587 3.72C69.8787 3.72 71.5054 3.97333 72.8387 4.48C74.1721 4.96 75.2387 5.76 76.0387 6.88C76.8387 8 77.4121 9.46667 77.7588 11.28C78.1321 13.0933 78.3187 15.3333 78.3187 18C78.3187 20.6667 78.1321 22.9067 77.7588 24.72C77.4121 26.5333 76.8387 28 76.0387 29.12C75.2387 30.24 74.1721 31.0533 72.8387 31.56C71.5054 32.04 69.8787 32.28 67.9587 32.28C66.0387 32.28 64.4121 32.04 63.0788 31.56C61.7454 31.0533 60.6787 30.24 59.8787 29.12C59.0787 28 58.4921 26.5333 58.1188 24.72C57.7454 22.9067 57.5588 20.6667 57.5588 18C57.5588 15.3333 57.7454 13.0933 58.1188 11.28C58.4921 9.46667 59.0787 8 59.8787 6.88C60.6787 5.76 61.7454 4.96 63.0788 4.48C64.4121 3.97333 66.0387 3.72 67.9587 3.72ZM67.9587 5.2C65.7987 5.2 64.0921 5.61333 62.8387 6.44C61.5854 7.24 60.6788 8.57333 60.1188 10.44C59.5588 12.3067 59.2788 14.8267 59.2788 18C59.2788 21.1733 59.5588 23.6933 60.1188 25.56C60.6788 27.4267 61.5854 28.7733 62.8387 29.6C64.0921 30.4 65.7987 30.8 67.9587 30.8C70.0921 30.8 71.7854 30.4 73.0387 29.6C74.3187 28.7733 75.2254 27.4267 75.7588 25.56C76.3188 23.6933 76.5988 21.1733 76.5988 18C76.5988 14.8267 76.3188 12.3067 75.7588 10.44C75.2254 8.57333 74.3187 7.24 73.0387 6.44C71.7854 5.61333 70.0921 5.2 67.9587 5.2Z" fill="#3F82E7"/>
<defs>
<clipPath id="clip0_773_316">
<rect width="22" height="36" fill="white"/>
</clipPath>
</defs>
</svg>
